<?xml version="1.0" encoding="UTF-8"?>
<svg version="1.1" xmlns="http://www.w3.org/2000/svg" width="48" height="47">
<path d="M0,0 L2,0 L2,1 L3,1 L3,2 L5,2 L5,3 L6,3 L6,2 L7,2 L7,1 L8,1 L8,0 L11,0 L11,2 L12,2 L12,3 L13,3 L13,4 L15,4 L15,3 L17,3 L17,2 L19,2 L19,8 L25,8 L25,14 L28,14 L28,15 L30,15 L30,17 L29,17 L29,18 L28,18 L28,20 L27,20 L27,21 L29,21 L29,22 L30,22 L30,23 L31,23 L31,25 L30,25 L30,26 L28,26 L28,27 L27,27 L27,29 L28,29 L28,30 L29,30 L29,33 L28,33 L28,34 L24,34 L24,40 L19,40 L19,41 L18,41 L18,46 L17,46 L17,45 L15,45 L15,44 L13,44 L13,43 L12,43 L12,44 L11,44 L11,46 L10,46 L10,47 L7,47 L7,46 L6,46 L6,44 L3,44 L3,45 L2,45 L2,46 L1,46 L1,47 L-1,47 L-1,44 L-2,44 L-2,41 L-4,41 L-4,42 L-6,42 L-6,43 L-8,43 L-8,36 L-14,36 L-14,34 L-13,34 L-13,32 L-12,32 L-12,30 L-14,30 L-14,29 L-16,29 L-16,28 L-17,28 L-17,26 L-16,26 L-16,25 L-15,25 L-15,24 L-14,24 L-14,22 L-15,22 L-15,21 L-16,21 L-16,20 L-17,20 L-17,18 L-16,18 L-16,17 L-13,17 L-13,16 L-12,16 L-12,13 L-13,13 L-13,11 L-14,11 L-14,10 L-7,10 L-7,3 L-6,3 L-6,4 L-4,4 L-4,5 L-1,5 L-1,3 L0,3 Z " fill="#FEE97F" transform="translate(17,0)"/>
<path d="M0,0 L1,0 L1,2 L3,2 L3,4 L4,4 L4,5 L5,5 L5,6 L6,6 L6,7 L7,7 L7,8 L8,8 L8,9 L9,9 L9,10 L10,10 L10,11 L11,11 L11,12 L12,12 L12,13 L13,13 L13,14 L14,14 L14,15 L15,15 L15,16 L16,16 L16,17 L17,17 L17,19 L19,19 L19,20 L20,20 L20,21 L21,21 L21,22 L22,22 L22,23 L23,23 L23,24 L24,24 L24,27 L23,27 L23,28 L22,28 L22,33 L21,33 L21,32 L19,32 L19,31 L17,31 L17,30 L16,30 L16,32 L15,32 L15,33 L14,33 L14,34 L13,34 L13,33 L12,33 L12,32 L11,32 L11,31 L9,31 L9,32 L7,32 L7,33 L6,33 L6,34 L5,34 L5,31 L4,31 L4,29 L0,29 L0,30 L-2,30 L-2,24 L-7,24 L-7,22 L-6,22 L-6,20 L-5,20 L-5,18 L-7,18 L-7,17 L-9,17 L-9,16 L-10,16 L-10,15 L-9,15 L-9,14 L-8,14 L-8,13 L-6,13 L-6,11 L-8,11 L-8,10 L-9,10 L-9,7 L-7,7 L-7,6 L-5,6 L-5,4 L-4,4 L-4,3 L-3,3 L-3,1 L0,1 Z " fill="#FFC034" transform="translate(12,11)"/>
<path d="M0,0 L2,0 L2,1 L3,1 L3,2 L5,2 L5,3 L6,3 L6,2 L7,2 L7,1 L8,1 L8,0 L11,0 L11,2 L12,2 L12,3 L13,3 L13,4 L15,4 L15,3 L18,3 L18,4 L16,4 L16,5 L14,5 L14,6 L6,6 L6,5 L5,5 L5,4 L4,4 L4,3 L2,3 L2,2 L1,2 L1,4 L0,4 L0,7 L-3,7 L-3,6 L-6,6 L-6,11 L-12,11 L-12,12 L-11,12 L-11,15 L-10,15 L-10,17 L-12,17 L-12,18 L-14,18 L-14,21 L-13,21 L-13,22 L-11,22 L-11,24 L-13,24 L-13,25 L-14,25 L-14,26 L-15,26 L-15,27 L-14,27 L-14,28 L-12,28 L-12,29 L-10,29 L-10,31 L-11,31 L-11,33 L-12,33 L-12,35 L-7,35 L-7,41 L-5,41 L-5,40 L-1,40 L-1,42 L0,42 L0,45 L1,45 L1,44 L2,44 L2,43 L4,43 L4,42 L6,42 L6,43 L7,43 L7,44 L8,44 L8,45 L9,45 L9,44 L10,44 L10,43 L11,43 L11,41 L12,41 L12,42 L14,42 L14,43 L16,43 L16,44 L17,44 L17,39 L18,39 L18,38 L19,38 L19,39 L23,39 L23,35 L22,35 L22,33 L26,33 L26,32 L27,32 L27,30 L26,30 L26,29 L25,29 L25,27 L26,27 L26,26 L27,26 L27,25 L29,25 L29,23 L28,23 L28,22 L26,22 L26,21 L25,21 L25,20 L26,20 L26,19 L27,19 L27,17 L28,17 L28,16 L26,16 L26,15 L24,15 L24,16 L23,16 L23,12 L24,12 L24,14 L28,14 L28,15 L30,15 L30,17 L29,17 L29,18 L28,18 L28,20 L27,20 L27,21 L29,21 L29,22 L30,22 L30,23 L31,23 L31,25 L30,25 L30,26 L28,26 L28,27 L27,27 L27,29 L28,29 L28,30 L29,30 L29,33 L28,33 L28,34 L24,34 L24,40 L19,40 L19,41 L18,41 L18,46 L17,46 L17,45 L15,45 L15,44 L13,44 L13,43 L12,43 L12,44 L11,44 L11,46 L10,46 L10,47 L7,47 L7,46 L6,46 L6,44 L3,44 L3,45 L2,45 L2,46 L1,46 L1,47 L-1,47 L-1,44 L-2,44 L-2,41 L-4,41 L-4,42 L-6,42 L-6,43 L-8,43 L-8,36 L-14,36 L-14,34 L-13,34 L-13,32 L-12,32 L-12,30 L-14,30 L-14,29 L-16,29 L-16,28 L-17,28 L-17,26 L-16,26 L-16,25 L-15,25 L-15,24 L-14,24 L-14,22 L-15,22 L-15,21 L-16,21 L-16,20 L-17,20 L-17,18 L-16,18 L-16,17 L-13,17 L-13,16 L-12,16 L-12,13 L-13,13 L-13,11 L-14,11 L-14,10 L-7,10 L-7,3 L-6,3 L-6,4 L-4,4 L-4,5 L-1,5 L-1,3 L0,3 Z " fill="#8F8A73" transform="translate(17,0)"/>
<path d="M0,0 L3,0 L3,1 L5,1 L5,2 L7,2 L7,3 L9,3 L9,4 L10,4 L10,5 L12,5 L12,8 L14,8 L14,10 L16,10 L16,11 L17,11 L17,12 L18,12 L18,13 L19,13 L19,15 L21,15 L21,16 L22,16 L22,18 L23,18 L23,27 L24,27 L24,28 L23,28 L23,29 L22,29 L22,27 L21,27 L21,26 L20,26 L20,25 L19,25 L19,24 L18,24 L18,23 L17,23 L17,22 L15,22 L15,20 L14,20 L14,19 L13,19 L13,18 L12,18 L12,17 L11,17 L11,16 L10,16 L10,15 L9,15 L9,14 L8,14 L8,13 L7,13 L7,12 L6,12 L6,11 L5,11 L5,10 L4,10 L4,9 L3,9 L3,8 L2,8 L2,7 L1,7 L1,5 L-1,5 L-1,3 L-2,3 L-2,4 L-5,4 L-5,6 L-6,6 L-6,7 L-8,7 L-8,4 L-9,4 L-9,3 L-3,3 L-3,2 L-2,2 L-2,1 L0,1 Z " fill="#FFCE50" transform="translate(14,8)"/>
<path d="M0,0 L2,0 L2,7 L3,7 L3,9 L5,9 L5,10 L6,10 L6,12 L7,12 L7,14 L9,14 L9,15 L10,15 L10,16 L11,16 L11,17 L13,17 L13,20 L15,20 L15,21 L16,21 L16,22 L18,22 L18,23 L21,23 L21,24 L23,24 L23,26 L22,26 L22,27 L21,27 L21,28 L20,28 L20,27 L19,27 L19,26 L18,26 L18,25 L16,25 L16,26 L14,26 L14,27 L13,27 L13,28 L12,28 L12,25 L11,25 L11,23 L7,23 L7,24 L5,24 L5,18 L0,18 L0,16 L1,16 L1,14 L2,14 L2,12 L0,12 L0,11 L-2,11 L-2,10 L-3,10 L-3,9 L-2,9 L-2,8 L-1,8 L-1,7 L1,7 L1,5 L-1,5 L-1,4 L-2,4 L-2,1 L0,1 Z " fill="#FFBC2E" transform="translate(5,17)"/>
<path d="M0,0 L1,0 L1,1 L2,1 L2,3 L4,3 L4,6 L6,6 L6,7 L7,7 L7,8 L8,8 L8,10 L10,10 L10,11 L11,11 L11,13 L12,13 L12,14 L14,14 L14,15 L15,15 L15,16 L16,16 L16,17 L17,17 L17,18 L19,18 L19,21 L22,21 L22,22 L23,22 L23,23 L25,23 L25,24 L24,24 L24,25 L23,25 L23,26 L22,26 L22,25 L19,25 L19,24 L16,24 L16,23 L14,23 L14,22 L13,22 L13,21 L11,21 L11,18 L9,18 L9,17 L8,17 L8,16 L7,16 L7,15 L5,15 L5,13 L4,13 L4,11 L3,11 L3,10 L1,10 L1,8 L0,8 Z " fill="#FEA731" transform="translate(7,16)"/>
<path d="M0,0 L2,0 L2,6 L8,6 L8,12 L7,12 L7,10 L6,10 L6,14 L7,14 L7,13 L9,13 L9,14 L11,14 L11,15 L10,15 L10,17 L9,17 L9,18 L8,18 L8,19 L9,19 L9,20 L11,20 L11,21 L12,21 L12,23 L10,23 L10,24 L9,24 L9,25 L7,25 L7,20 L6,20 L6,19 L5,19 L5,17 L4,17 L4,16 L3,16 L3,14 L2,14 L2,13 L1,13 L1,12 L0,12 L0,11 L-1,11 L-1,10 L-2,10 L-2,9 L-3,9 L-3,8 L-4,8 L-4,7 L-6,7 L-6,6 L-8,6 L-8,5 L-10,5 L-10,4 L-3,4 L-3,3 L-1,3 L-1,2 L1,2 L1,1 L0,1 Z " fill="#FDCD50" transform="translate(34,2)"/>
<path d="M0,0 L1,0 L1,2 L5,2 L5,3 L7,3 L7,5 L6,5 L6,6 L5,6 L5,8 L4,8 L4,9 L6,9 L6,10 L7,10 L7,11 L8,11 L8,13 L7,13 L7,14 L5,14 L5,15 L4,15 L4,17 L5,17 L5,18 L6,18 L6,21 L5,21 L5,22 L1,22 L1,28 L-4,28 L-4,29 L-5,29 L-5,34 L-6,34 L-6,33 L-8,33 L-8,32 L-10,32 L-10,31 L-12,31 L-12,29 L-11,29 L-11,30 L-9,30 L-9,31 L-7,31 L-7,32 L-6,32 L-6,27 L-5,27 L-5,26 L-4,26 L-4,27 L0,27 L0,23 L-1,23 L-1,21 L3,21 L3,20 L4,20 L4,18 L3,18 L3,17 L2,17 L2,15 L3,15 L3,14 L4,14 L4,13 L6,13 L6,11 L5,11 L5,10 L3,10 L3,9 L2,9 L2,8 L3,8 L3,7 L4,7 L4,5 L5,5 L5,4 L3,4 L3,3 L1,3 L1,4 L0,4 Z " fill="#948A6A" transform="translate(40,12)"/>
<path d="M0,0 L3,0 L3,2 L4,2 L4,3 L5,3 L5,4 L6,4 L6,6 L7,6 L7,7 L9,7 L9,8 L11,8 L11,9 L13,9 L13,10 L22,10 L22,12 L21,12 L21,13 L20,13 L20,14 L19,14 L19,13 L18,13 L18,12 L17,12 L17,11 L15,11 L15,12 L13,12 L13,13 L12,13 L12,14 L11,14 L11,11 L10,11 L10,9 L6,9 L6,10 L4,10 L4,4 L-1,4 L-1,2 L0,2 Z " fill="#FCE268" transform="translate(6,31)"/>
<path d="M0,0 L2,0 L2,7 L3,7 L3,9 L5,9 L5,10 L6,10 L6,12 L7,12 L7,15 L6,15 L6,14 L5,14 L5,13 L3,13 L3,11 L2,11 L2,12 L0,12 L0,11 L-2,11 L-2,10 L-3,10 L-3,9 L-2,9 L-2,8 L-1,8 L-1,7 L1,7 L1,5 L-1,5 L-1,4 L-2,4 L-2,1 L0,1 Z " fill="#FFBF32" transform="translate(5,17)"/>
<path d="M0,0 L3,0 L3,2 L4,2 L4,3 L5,3 L5,4 L7,4 L7,3 L10,3 L10,4 L8,4 L8,5 L6,5 L6,6 L-2,6 L-2,5 L-3,5 L-3,3 L-2,3 L-2,2 L-1,2 L-1,1 L0,1 Z " fill="#A5966A" transform="translate(25,0)"/>
<path d="M0,0 L1,0 L1,3 L7,3 L7,9 L6,9 L6,7 L5,7 L5,11 L4,11 L4,9 L3,9 L3,8 L2,8 L2,7 L1,7 L1,6 L0,6 L0,5 L-1,5 L-1,4 L-2,4 L-2,3 L0,3 Z " fill="#C0983A" transform="translate(35,5)"/>
<path d="M0,0 L2,0 L2,1 L3,1 L3,2 L4,2 L4,3 L5,3 L5,4 L6,4 L6,6 L7,6 L7,9 L8,9 L8,12 L7,12 L7,11 L6,11 L6,9 L5,9 L5,8 L4,8 L4,6 L3,6 L3,5 L2,5 L2,4 L1,4 L1,3 L0,3 L0,2 L-1,2 L-1,1 L0,1 Z " fill="#FFD359" transform="translate(33,10)"/>
<path d="M0,0 L2,0 L2,3 L3,3 L3,2 L4,2 L4,1 L6,1 L6,0 L8,0 L8,1 L9,1 L9,2 L10,2 L10,3 L11,3 L11,2 L12,2 L12,1 L14,1 L14,2 L13,2 L13,4 L12,4 L12,5 L9,5 L9,4 L8,4 L8,2 L5,2 L5,3 L4,3 L4,4 L3,4 L3,5 L1,5 L1,2 L0,2 Z " fill="#9B987E" transform="translate(15,42)"/>
<path d="M0,0 L1,0 L1,1 L2,1 L2,5 L3,5 L3,6 L2,6 L2,8 L3,8 L3,12 L-1,12 L-1,10 L0,10 L0,9 L1,9 L1,8 L0,8 Z " fill="#FFD45E" transform="translate(37,27)"/>
<path d="M0,0 L2,0 L2,1 L3,1 L3,2 L5,2 L5,5 L7,5 L7,7 L9,7 L9,8 L10,8 L10,9 L11,9 L11,10 L12,10 L12,12 L11,12 L11,11 L9,11 L9,10 L8,10 L8,8 L6,8 L6,7 L5,7 L5,6 L4,6 L4,5 L3,5 L3,3 L2,3 L2,2 L0,2 Z " fill="#FFD763" transform="translate(21,11)"/>
<path d="M0,0 L1,0 L1,5 L-4,5 L-4,6 L-5,6 L-5,11 L-6,11 L-6,10 L-8,10 L-8,9 L-10,9 L-10,8 L-12,8 L-12,6 L-11,6 L-11,7 L-9,7 L-9,8 L-7,8 L-7,9 L-6,9 L-6,4 L-5,4 L-5,3 L-4,3 L-4,4 L0,4 Z " fill="#7A7664" transform="translate(40,35)"/>
<path d="M0,0 L1,0 L1,2 L3,2 L3,3 L4,3 L4,4 L5,4 L5,3 L6,3 L6,7 L7,7 L7,8 L8,8 L8,9 L9,9 L9,10 L10,10 L10,11 L8,11 L8,10 L6,10 L6,9 L5,9 L5,7 L4,7 L4,6 L3,6 L3,5 L2,5 L2,3 L0,3 Z " fill="#FFC53C" transform="translate(7,28)"/>
<path d="M0,0 L3,0 L3,1 L5,1 L5,3 L4,3 L4,8 L3,8 L3,7 L1,7 L1,6 L0,6 L0,5 L1,5 L1,4 L2,4 L2,3 L0,3 Z " fill="#FDBC2E" transform="translate(30,36)"/>
<path d="M0,0 L2,0 L2,3 L1,3 L1,6 L-3,6 L-3,5 L-5,5 L-5,4 L-3,4 L-3,3 L-1,3 L-1,2 L1,2 L1,1 L0,1 Z " fill="#EFC65F" transform="translate(34,2)"/>
<path d="M0,0 L1,0 L1,1 L3,1 L3,2 L4,2 L4,4 L2,4 L2,5 L1,5 L1,6 L-1,6 L-1,2 L0,2 Z " fill="#FBD15A" transform="translate(42,21)"/>
<path d="M0,0 L1,0 L1,1 L3,1 L3,2 L4,2 L4,3 L5,3 L5,4 L-1,4 L-1,2 L0,2 Z " fill="#FADE66" transform="translate(18,2)"/>
<path d="M0,0 L2,0 L2,1 L1,1 L1,3 L0,3 L0,4 L-3,4 L-3,3 L-4,3 L-4,1 L-2,1 L-2,2 L-1,2 L-1,1 L0,1 Z " fill="#A5A489" transform="translate(27,43)"/>
<path d="M0,0 L2,0 L2,4 L3,4 L3,5 L1,5 L1,4 L-1,4 L-1,3 L-2,3 L-2,2 L-1,2 L-1,1 L0,1 Z " fill="#F9EA6F" transform="translate(4,24)"/>
<path d="M0,0 L2,0 L2,2 L1,2 L1,5 L-1,5 L-1,4 L-2,4 L-2,1 L0,1 Z " fill="#FAF173" transform="translate(5,17)"/>
<path d="M0,0 L2,0 L2,4 L-2,4 L-2,2 L-1,2 L-1,1 L0,1 Z " fill="#F9EE72" transform="translate(38,35)"/>
<path d="M0,0 L5,0 L5,1 L4,1 L4,3 L3,3 L3,4 L1,4 L1,1 L0,1 Z " fill="#F8F678" transform="translate(5,11)"/>
<path d="M0,0 L3,0 L3,2 L4,2 L4,5 L3,5 L3,3 L2,3 L2,4 L1,4 L1,3 L0,3 Z " fill="#F1CD70" transform="translate(38,9)"/>
<path d="M0,0 L1,0 L1,5 L0,5 L0,4 L-2,4 L-2,3 L-3,3 L-3,2 L-2,2 L-2,1 L0,1 Z " fill="#FAF678" transform="translate(33,39)"/>
<path d="M0,0 L2,0 L2,1 L3,1 L3,3 L2,3 L2,4 L-1,4 L-1,3 L0,3 Z " fill="#FBE369" transform="translate(41,29)"/>
<path d="M0,0 L2,0 L2,1 L3,1 L3,3 L4,3 L4,4 L3,4 L3,5 L2,5 L2,4 L1,4 L1,2 L0,2 Z " fill="#FFD663" transform="translate(33,23)"/>
<path d="M0,0 L3,0 L3,1 L4,1 L4,2 L3,2 L3,3 L1,3 L1,4 L0,4 Z " fill="#FFF374" transform="translate(11,6)"/>
<path d="M0,0 L1,0 L1,2 L2,2 L2,4 L-2,4 L-2,2 L0,2 Z " fill="#F5D05B" transform="translate(26,1)"/>
<path d="M0,0 L5,0 L5,1 L4,1 L4,2 L3,2 L3,3 L2,3 L2,2 L1,2 L1,1 L0,1 Z " fill="#FCF778" transform="translate(23,42)"/>
<path d="M0,0 L1,0 L1,1 L2,1 L2,2 L1,2 L1,3 L-1,3 L-1,1 L0,1 Z " fill="#A8A47A" transform="translate(35,38)"/>
</svg>
